<?xml version="1.0" encoding="UTF-8" standalone="no"?>
<svg
   xmlns:dc="http://purl.org/dc/elements/1.1/"
   xmlns:cc="http://creativecommons.org/ns#"
   xmlns:rdf="http://www.w3.org/1999/02/22-rdf-syntax-ns#"
   xmlns:svg="http://www.w3.org/2000/svg"
   xmlns="http://www.w3.org/2000/svg"
   xmlns:sodipodi="http://sodipodi.sourceforge.net/DTD/sodipodi-0.dtd"
   xmlns:inkscape="http://www.inkscape.org/namespaces/inkscape"
   viewBox="0 0 24 24"
   preserveAspectRatio="xMidYMid meet"
   focusable="false"
   class="style-scope yt-icon"
   style="pointer-events: none; display: block; width: 100%; height: 100%;"
   version="1.1"
   id="svg6"
   sodipodi:docname="dislike.svg"
   inkscape:version="1.0.2 (e86c870879, 2021-01-15, custom)">
  <metadata
     id="metadata12">
    <rdf:RDF>
      <cc:Work
         rdf:about="">
        <dc:format>image/svg+xml</dc:format>
        <dc:type
           rdf:resource="http://purl.org/dc/dcmitype/StillImage" />
      </cc:Work>
    </rdf:RDF>
  </metadata>
  <defs
     id="defs10" />
  <sodipodi:namedview
     pagecolor="#ffffff"
     bordercolor="#666666"
     borderopacity="1"
     objecttolerance="10"
     gridtolerance="10"
     guidetolerance="10"
     inkscape:pageopacity="0"
     inkscape:pageshadow="2"
     inkscape:window-width="1920"
     inkscape:window-height="1056"
     id="namedview8"
     showgrid="false"
     inkscape:zoom="29.791667"
     inkscape:cx="12"
     inkscape:cy="12"
     inkscape:window-x="0"
     inkscape:window-y="0"
     inkscape:window-maximized="1"
     inkscape:current-layer="svg6" />
  <g
     class="style-scope yt-icon"
     id="g4"
     transform="matrix(1.084863,0,0,1.084863,-1.018356,-2.103219)"
     style="fill:#909090;fill-opacity:1">
    <path
       d="M 15,3 H 6 C 5.17,3 4.46,3.5 4.16,4.22 L 1.14,11.27 C 1.05,11.5 1,11.74 1,12 v 1.91 L 1.01,13.92 1,14 c 0,1.1 0.9,2 2,2 h 6.31 l -0.95,4.57 -0.03,0.32 c 0,0.41 0.17,0.79 0.44,1.06 L 9.83,23 16.42,16.41 C 16.78,16.05 17,15.55 17,15 V 5 C 17,3.9 16.1,3 15,3 Z m 4,0 v 12 h 4 V 3 Z"
       class="style-scope yt-icon"
       id="path2"
       style="fill:#909090;fill-opacity:1" />
  </g>
</svg>
