<?xml version="1.0" encoding="UTF-8" standalone="no"?>
<svg
   xmlns:dc="http://purl.org/dc/elements/1.1/"
   xmlns:cc="http://creativecommons.org/ns#"
   xmlns:rdf="http://www.w3.org/1999/02/22-rdf-syntax-ns#"
   xmlns:svg="http://www.w3.org/2000/svg"
   xmlns="http://www.w3.org/2000/svg"
   xmlns:sodipodi="http://sodipodi.sourceforge.net/DTD/sodipodi-0.dtd"
   xmlns:inkscape="http://www.inkscape.org/namespaces/inkscape"
   viewBox="0 0 24 24"
   preserveAspectRatio="xMidYMid meet"
   focusable="false"
   class="style-scope yt-icon"
   style="pointer-events: none; display: block; width: 100%; height: 100%;"
   version="1.1"
   id="svg6"
   sodipodi:docname="history.svg"
   inkscape:version="1.0.2 (e86c870879, 2021-01-15, custom)">
  <metadata
     id="metadata12">
    <rdf:RDF>
      <cc:Work
         rdf:about="">
        <dc:format>image/svg+xml</dc:format>
        <dc:type
           rdf:resource="http://purl.org/dc/dcmitype/StillImage" />
      </cc:Work>
    </rdf:RDF>
  </metadata>
  <defs
     id="defs10" />
  <sodipodi:namedview
     pagecolor="#ffffff"
     bordercolor="#666666"
     borderopacity="1"
     objecttolerance="10"
     gridtolerance="10"
     guidetolerance="10"
     inkscape:pageopacity="0"
     inkscape:pageshadow="2"
     inkscape:window-width="1920"
     inkscape:window-height="1006"
     id="namedview8"
     showgrid="false"
     inkscape:zoom="29.791667"
     inkscape:cx="12"
     inkscape:cy="12"
     inkscape:window-x="0"
     inkscape:window-y="0"
     inkscape:window-maximized="1"
     inkscape:current-layer="svg6"
     inkscape:document-rotation="0" />
  <g
     class="style-scope yt-icon"
     id="g4"
     style="fill:#909090;fill-opacity:1"
     transform="matrix(1.2438834,0,0,1.2438834,-1.1291889,-2.9266003)">
    <path
       d="M 11.9,3.75 C 7.35,3.75 3.67,7.45 3.67,12 H 0.92 L 4.49,15.57 4.53,15.7 8.23,12 H 5.5 c 0,-3.54 2.87,-6.42 6.42,-6.42 3.54,0 6.4,2.88 6.4,6.42 0,3.54 -2.86,6.42 -6.4,6.42 -1.78,0 -3.38,-0.73 -4.54,-1.9 l -1.3,1.3 c 1.5,1.5 3.55,2.43 5.83,2.43 4.58,0 8.28,-3.7 8.28,-8.25 0,-4.56 -3.7,-8.25 -8.26,-8.25 z M 11,8.33 v 4.6 l 3.92,2.3 0.66,-1.1 -3.2,-1.9 v -3.9 z"
       class="style-scope yt-icon"
       id="path2"
       style="fill:#909090;fill-opacity:1" />
  </g>
</svg>
