<?xml version="1.0" encoding="UTF-8" standalone="no"?>
<svg
   xmlns:dc="http://purl.org/dc/elements/1.1/"
   xmlns:cc="http://creativecommons.org/ns#"
   xmlns:rdf="http://www.w3.org/1999/02/22-rdf-syntax-ns#"
   xmlns:svg="http://www.w3.org/2000/svg"
   xmlns="http://www.w3.org/2000/svg"
   xmlns:sodipodi="http://sodipodi.sourceforge.net/DTD/sodipodi-0.dtd"
   xmlns:inkscape="http://www.inkscape.org/namespaces/inkscape"
   viewBox="0 0 24 24"
   preserveAspectRatio="xMidYMid meet"
   focusable="false"
   class="style-scope yt-icon"
   style="pointer-events: none; display: block; width: 100%; height: 100%;"
   version="1.1"
   id="svg6"
   sodipodi:docname="live_playlist.svg"
   inkscape:version="1.0.2 (e86c870879, 2021-01-15, custom)">
  <metadata
     id="metadata12">
    <rdf:RDF>
      <cc:Work
         rdf:about="">
        <dc:format>image/svg+xml</dc:format>
        <dc:type
           rdf:resource="http://purl.org/dc/dcmitype/StillImage" />
      </cc:Work>
    </rdf:RDF>
  </metadata>
  <defs
     id="defs10" />
  <sodipodi:namedview
     pagecolor="#ffffff"
     bordercolor="#666666"
     borderopacity="1"
     objecttolerance="10"
     gridtolerance="10"
     guidetolerance="10"
     inkscape:pageopacity="0"
     inkscape:pageshadow="2"
     inkscape:window-width="1920"
     inkscape:window-height="1006"
     id="namedview8"
     showgrid="false"
     inkscape:zoom="29.791667"
     inkscape:cx="12"
     inkscape:cy="12"
     inkscape:window-x="0"
     inkscape:window-y="0"
     inkscape:window-maximized="1"
     inkscape:current-layer="svg6" />
  <g
     class="style-scope yt-icon"
     id="g4"
     style="fill:#909090;fill-opacity:1">
    <path
       d="M16.94 6.9l-1.4 1.46C16.44 9.3 17 10.58 17 12s-.58 2.7-1.48 3.64l1.4 1.45C18.22 15.74 19 13.94 19 12s-.8-3.8-2.06-5.1zM23 12c0-3.12-1.23-5.95-3.23-8l-1.4 1.45C19.97 7.13 21 9.45 21 12s-1 4.9-2.64 6.55l1.4 1.45c2-2.04 3.24-4.87 3.24-8zM7.06 17.1l1.4-1.46C7.56 14.7 7 13.42 7 12s.6-2.7 1.5-3.64L7.08 6.9C5.78 8.2 5 10 5 12s.8 3.8 2.06 5.1zM1 12c0 3.12 1.23 5.95 3.23 8l1.4-1.45C4.03 16.87 3 14.55 3 12s1-4.9 2.64-6.55L4.24 4C2.24 6.04 1 8.87 1 12zm9-3.32v6.63l5-3.3-5-3.3z"
       class="style-scope yt-icon"
       id="path2"
       style="fill:#909090;fill-opacity:1" />
  </g>
</svg>
