<?xml version="1.0" encoding="UTF-8" standalone="no"?>
<svg
   xmlns:dc="http://purl.org/dc/elements/1.1/"
   xmlns:cc="http://creativecommons.org/ns#"
   xmlns:rdf="http://www.w3.org/1999/02/22-rdf-syntax-ns#"
   xmlns:svg="http://www.w3.org/2000/svg"
   xmlns="http://www.w3.org/2000/svg"
   xmlns:sodipodi="http://sodipodi.sourceforge.net/DTD/sodipodi-0.dtd"
   xmlns:inkscape="http://www.inkscape.org/namespaces/inkscape"
   viewBox="0 0 24 24"
   preserveAspectRatio="xMidYMid meet"
   focusable="false"
   class="style-scope yt-icon"
   style="pointer-events: none; display: block; width: 100%; height: 100%;"
   version="1.1"
   id="svg8"
   sodipodi:docname="live.svg"
   inkscape:version="1.0.2 (e86c870879, 2021-01-15, custom)">
  <metadata
     id="metadata14">
    <rdf:RDF>
      <cc:Work
         rdf:about="">
        <dc:format>image/svg+xml</dc:format>
        <dc:type
           rdf:resource="http://purl.org/dc/dcmitype/StillImage" />
      </cc:Work>
    </rdf:RDF>
  </metadata>
  <defs
     id="defs12" />
  <sodipodi:namedview
     pagecolor="#ffffff"
     bordercolor="#666666"
     borderopacity="1"
     objecttolerance="10"
     gridtolerance="10"
     guidetolerance="10"
     inkscape:pageopacity="0"
     inkscape:pageshadow="2"
     inkscape:window-width="1920"
     inkscape:window-height="1006"
     id="namedview10"
     showgrid="false"
     inkscape:zoom="29.791667"
     inkscape:cx="12"
     inkscape:cy="12"
     inkscape:window-x="0"
     inkscape:window-y="0"
     inkscape:window-maximized="1"
     inkscape:current-layer="svg8"
     inkscape:document-rotation="0" />
  <g
     class="style-scope yt-icon"
     id="g6"
     style="fill:#909090;fill-opacity:1"
     transform="matrix(1.0967855,0,0,1.0967855,-1.1614254,-1.1614254)">
    <path
       d="m 16.94,6.91 -1.41,1.45 c 0.9,0.94 1.46,2.22 1.46,3.64 0,1.42 -0.56,2.71 -1.46,3.64 l 1.41,1.45 c 1.27,-1.31 2.05,-3.11 2.05,-5.09 0,-1.98 -0.78,-3.79 -2.05,-5.09 z M 19.77,4 18.36,5.45 c 1.62,1.68 2.64,3.99 2.64,6.56 0,2.57 -1.01,4.88 -2.64,6.54 L 19.76,20 C 21.77,17.96 23,15.13 23,12.01 23,8.88 21.77,6.05 19.77,4 Z M 7.06,6.91 c -1.27,1.3 -2.05,3.1 -2.05,5.09 0,1.99 0.78,3.79 2.05,5.09 L 8.47,15.64 C 7.57,14.7 7.01,13.42 7.01,12 7.01,10.58 7.57,9.29 8.47,8.36 Z M 5.64,5.45 4.24,4 C 2.23,6.04 1,8.87 1,11.99 1,15.12 2.23,17.95 4.23,20 L 5.64,18.55 C 4.02,16.87 3,14.56 3,11.99 3,9.42 4.01,7.11 5.64,5.45 Z"
       class="style-scope yt-icon"
       id="path2"
       style="fill:#909090;fill-opacity:1" />
    <circle
       cx="12"
       cy="12"
       r="3"
       class="style-scope yt-icon"
       id="circle4"
       style="fill:#909090;fill-opacity:1" />
  </g>
</svg>
