<?xml version="1.0" encoding="UTF-8" standalone="no"?>
<svg
   xmlns:dc="http://purl.org/dc/elements/1.1/"
   xmlns:cc="http://creativecommons.org/ns#"
   xmlns:rdf="http://www.w3.org/1999/02/22-rdf-syntax-ns#"
   xmlns:svg="http://www.w3.org/2000/svg"
   xmlns="http://www.w3.org/2000/svg"
   xmlns:sodipodi="http://sodipodi.sourceforge.net/DTD/sodipodi-0.dtd"
   xmlns:inkscape="http://www.inkscape.org/namespaces/inkscape"
   viewBox="0 0 24 24"
   preserveAspectRatio="xMidYMid meet"
   focusable="false"
   class="style-scope yt-icon"
   style="pointer-events: none; display: block; width: 100%; height: 100%;"
   version="1.1"
   id="svg6"
   sodipodi:docname="logo_mini.svg"
   inkscape:version="1.0.2 (e86c870879, 2021-01-15, custom)">
  <metadata
     id="metadata12">
    <rdf:RDF>
      <cc:Work
         rdf:about="">
        <dc:format>image/svg+xml</dc:format>
        <dc:type
           rdf:resource="http://purl.org/dc/dcmitype/StillImage" />
      </cc:Work>
    </rdf:RDF>
  </metadata>
  <defs
     id="defs10" />
  <sodipodi:namedview
     pagecolor="#ffffff"
     bordercolor="#666666"
     borderopacity="1"
     objecttolerance="10"
     gridtolerance="10"
     guidetolerance="10"
     inkscape:pageopacity="0"
     inkscape:pageshadow="2"
     inkscape:window-width="1920"
     inkscape:window-height="1006"
     id="namedview8"
     showgrid="false"
     inkscape:zoom="29.791667"
     inkscape:cx="12"
     inkscape:cy="12"
     inkscape:window-x="0"
     inkscape:window-y="0"
     inkscape:window-maximized="1"
     inkscape:current-layer="svg6"
     inkscape:document-rotation="0" />
  <g
     class="style-scope yt-icon"
     id="g4"
     style="fill:#909090;fill-opacity:1"
     transform="matrix(1.2025013,0,0,1.2025013,-2.4300157,-2.4461595)">
    <path
       fill-rule="nonzero"
       d="m 21.78,8 c 0,0 -0.2,-1.37 -0.8,-1.97 -0.75,-0.8 -1.6,-0.8 -2,-0.85 C 16.2,4.98 12,5 12,5 12,5 7.82,4.98 5.03,5.18 4.63,5.23 3.79,5.23 3.03,6.03 2.43,6.63 2.23,8 2.23,8 2.23,8 2.03,9.63 2,11.23 v 1.7 c 0.03,1.6 0.23,3.2 0.23,3.2 0,0 0.2,1.4 0.8,2 0.76,0.8 1.75,0.76 2.2,0.85 1.57,0.15 6.6,0.18 6.77,0.18 0,0 4.2,0 7,-0.2 0.38,-0.04 1.23,-0.04 2,-0.84 0.6,-0.6 0.8,-1.98 0.8,-1.98 0,0 0.2,-1.6 0.2,-3.22 v -1.7 C 21.98,9.62 21.78,8 21.78,8 Z M 9.98,15 V 9.16 L 15.33,12.19 9.97,15 Z"
       class="style-scope yt-icon"
       id="path2"
       style="fill:#909090;fill-opacity:1" />
  </g>
</svg>
