<?xml version="1.0" encoding="UTF-8" standalone="no"?>
<svg
   xmlns:dc="http://purl.org/dc/elements/1.1/"
   xmlns:cc="http://creativecommons.org/ns#"
   xmlns:rdf="http://www.w3.org/1999/02/22-rdf-syntax-ns#"
   xmlns:svg="http://www.w3.org/2000/svg"
   xmlns="http://www.w3.org/2000/svg"
   xmlns:sodipodi="http://sodipodi.sourceforge.net/DTD/sodipodi-0.dtd"
   xmlns:inkscape="http://www.inkscape.org/namespaces/inkscape"
   viewBox="0 0 24 24"
   preserveAspectRatio="xMidYMid meet"
   focusable="false"
   class="style-scope yt-icon"
   style="pointer-events: none; display: block; width: 100%; height: 100%;"
   version="1.1"
   id="svg6"
   sodipodi:docname="settings.svg"
   inkscape:version="1.0.2 (e86c870879, 2021-01-15, custom)">
  <metadata
     id="metadata12">
    <rdf:RDF>
      <cc:Work
         rdf:about="">
        <dc:format>image/svg+xml</dc:format>
        <dc:type
           rdf:resource="http://purl.org/dc/dcmitype/StillImage" />
      </cc:Work>
    </rdf:RDF>
  </metadata>
  <defs
     id="defs10" />
  <sodipodi:namedview
     pagecolor="#ffffff"
     bordercolor="#666666"
     borderopacity="1"
     objecttolerance="10"
     gridtolerance="10"
     guidetolerance="10"
     inkscape:pageopacity="0"
     inkscape:pageshadow="2"
     inkscape:window-width="1920"
     inkscape:window-height="1006"
     id="namedview8"
     showgrid="false"
     inkscape:zoom="29.791667"
     inkscape:cx="12"
     inkscape:cy="12"
     inkscape:window-x="0"
     inkscape:window-y="0"
     inkscape:window-maximized="1"
     inkscape:current-layer="svg6"
     inkscape:document-rotation="0" />
  <g
     class="style-scope yt-icon"
     id="g4"
     style="fill:#909090;fill-opacity:1"
     transform="matrix(1.1984942,0,0,1.1984942,-2.3769682,-2.3819306)">
    <path
       d="m 19.43,12.98 c 0.04,-0.32 0.07,-0.64 0.07,-0.98 0,-0.34 -0.03,-0.66 -0.07,-0.98 l 2.1,-1.65 c 0.2,-0.15 0.25,-0.42 0.13,-0.64 l -2,-3.46 c -0.12,-0.22 -0.4,-0.3 -0.6,-0.22 l -2.5,1 C 16.04,5.65 15.48,5.32 14.86,5.07 L 14.49,2.42 C 14.43,2.18 14.22,2 13.99,2 h -4 C 9.72,2 9.51,2.18 9.49,2.42 l -0.4,2.65 c -0.6,0.25 -1.17,0.6 -1.7,0.98 l -2.48,-1 c -0.23,-0.1 -0.5,0 -0.6,0.22 l -2,3.46 c -0.14,0.22 -0.08,0.5 0.1,0.64 l 2.12,1.65 C 4.49,11.34 4.46,11.67 4.46,12 c 0,0.33 0.02,0.66 0.06,0.98 l -2.1,1.65 c -0.2,0.15 -0.25,0.42 -0.13,0.64 l 2,3.46 c 0.12,0.22 0.4,0.3 0.6,0.22 l 2.5,-1 c 0.52,0.4 1.08,0.73 1.7,0.98 l 0.37,2.65 C 9.5,21.82 9.71,22 9.96,22 h 4 c 0.25,0 0.46,-0.18 0.5,-0.42 l 0.37,-2.65 c 0.6,-0.25 1.17,-0.6 1.7,-0.98 l 2.48,1 c 0.23,0.1 0.5,0 0.6,-0.22 l 2,-3.46 c 0.13,-0.22 0.08,-0.5 -0.1,-0.64 L 19.39,12.98 Z M 12,15.5 c -1.93,0 -3.5,-1.57 -3.5,-3.5 0,-1.93 1.57,-3.5 3.5,-3.5 1.93,0 3.5,1.57 3.5,3.5 0,1.93 -1.57,3.5 -3.5,3.5 z"
       class="style-scope yt-icon"
       id="path2"
       style="fill:#909090;fill-opacity:1" />
  </g>
</svg>
