<?xml version="1.0" encoding="UTF-8" standalone="no"?>
<svg
   xmlns:dc="http://purl.org/dc/elements/1.1/"
   xmlns:cc="http://creativecommons.org/ns#"
   xmlns:rdf="http://www.w3.org/1999/02/22-rdf-syntax-ns#"
   xmlns:svg="http://www.w3.org/2000/svg"
   xmlns="http://www.w3.org/2000/svg"
   xmlns:sodipodi="http://sodipodi.sourceforge.net/DTD/sodipodi-0.dtd"
   xmlns:inkscape="http://www.inkscape.org/namespaces/inkscape"
   viewBox="0 0 24 24"
   preserveAspectRatio="xMidYMid meet"
   focusable="false"
   class="style-scope yt-icon"
   style="pointer-events: none; display: block; width: 100%; height: 100%;"
   version="1.1"
   id="svg10"
   sodipodi:docname="sport.svg"
   inkscape:version="1.0.2 (e86c870879, 2021-01-15, custom)">
  <metadata
     id="metadata16">
    <rdf:RDF>
      <cc:Work
         rdf:about="">
        <dc:format>image/svg+xml</dc:format>
        <dc:type
           rdf:resource="http://purl.org/dc/dcmitype/StillImage" />
      </cc:Work>
    </rdf:RDF>
  </metadata>
  <defs
     id="defs14" />
  <sodipodi:namedview
     pagecolor="#ffffff"
     bordercolor="#666666"
     borderopacity="1"
     objecttolerance="10"
     gridtolerance="10"
     guidetolerance="10"
     inkscape:pageopacity="0"
     inkscape:pageshadow="2"
     inkscape:window-width="1920"
     inkscape:window-height="1006"
     id="namedview12"
     showgrid="false"
     inkscape:zoom="29.791667"
     inkscape:cx="12"
     inkscape:cy="12"
     inkscape:window-x="0"
     inkscape:window-y="0"
     inkscape:window-maximized="1"
     inkscape:current-layer="svg10"
     inkscape:document-rotation="0" />
  <g
     class="style-scope yt-icon"
     id="g8"
     style="fill:#909090;fill-opacity:1"
     transform="matrix(1.099909,0,0,1.099909,-1.1989086,-1.2513608)">
    <path
       d="M 6.85,7.76 V 6.18 H 1 v 2.88 c 0,2.35 1.9,4.26 4.26,4.26 H 6.85 V 11.73 H 5.4 A 2.81,2.81 0 0 1 2.59,8.93 V 7.75 h 4.26 z m 10.3,0 V 6.18 H 23 v 2.88 c 0,2.35 -1.9,4.26 -4.26,4.26 h -1.59 v -1.59 h 1.45 a 2.81,2.81 0 0 0 2.81,-2.8 V 7.75 h -4.26 z"
       class="style-scope yt-icon"
       id="path2"
       style="fill:#909090;fill-opacity:1" />
    <path
       d="M 12,17.29 A 6.87,6.87 0 0 1 5.13,10.42 V 3 h 13.74 v 7.42 c 0,3.8 -3.07,6.87 -6.87,6.87 z"
       class="style-scope yt-icon"
       id="path4"
       style="fill:#909090;fill-opacity:1" />
    <path
       d="M 12,17.29 V 3 h 6.87 v 7.42 c 0,3.8 -3.07,6.87 -6.87,6.87 z m 0,0 4.13,2.38 H 7.88 L 12,17.3 Z m 4.13,2.38 H 7.88 v 2.38 h 8.25 z"
       class="style-scope yt-icon"
       id="path6"
       style="fill:#909090;fill-opacity:1" />
  </g>
</svg>
